# xmcd
#
# Track frame offsets: 
#        150
#        19253
#        30337
#        47122
#        69652
#        82230
#        94930
#        109816
#        126904
#        142699
#        158672
#        178334
#        188511
#        208951
#
# Disc length: 3139 seconds
#
# Revision: 4
# Processed by: cddbd v1.5.2PL0 Copyright (c) Steve Scherf et al.
# Submitted via: ExactAudioCopy v0.99pb5
#
DISCID=c30c410e
DTITLE=Screamin' Jay Hawkins - The Essential Recordings (Remastered)
DYEAR=2000
DGENRE=Blues
TTITLE0=Portrait Of A Man
TTITLE1=Little Bitty Pretty One
TTITLE2=Don't Deceive Me
TTITLE3=What's Gonna Happen On The 8th Day
TTITLE4=Ashes
TTITLE5=We Love
TTITLE6=It's Only Make Believe
TTITLE7=Please Don't Leave Me
TTITLE8=I Put A Spell On You
TTITLE9=I Don't Know
TTITLE10=Guess Who
TTITLE11=What Good Is It (Part 1)
TTITLE12=What Good Is It (Part 2)
TTITLE13=Same Damn Thing
EXTD=
EXTT0=
EXTT1=
EXTT2=
EXTT3=
EXTT4=
EXTT5=
EXTT6=
EXTT7=
EXTT8=
EXTT9=
EXTT10=
EXTT11=
EXTT12=
EXTT13=
PLAYORDER=
